<?xml version="1.0" encoding="UTF-8"?>
<!DOCTYPE svg PUBLIC "-//W3C//DTD SVG 1.1//EN" "http://www.w3.org/Graphics/SVG/1.1/DTD/svg11.dtd">
<svg xmlns="http://www.w3.org/2000/svg" version="1.1" width="490px" height="94px" style="shape-rendering:geometricPrecision; text-rendering:geometricPrecision; image-rendering:optimizeQuality; fill-rule:evenodd; clip-rule:evenodd" xmlns:xlink="http://www.w3.org/1999/xlink">
<g><path style="opacity:0.973" fill="#ed7935" d="M 95.5,23.5 C 95.5,24.8333 94.8333,25.5 93.5,25.5C 92.6906,24.5313 91.6906,23.6979 90.5,23C 72.5,22.3333 54.5,22.3333 36.5,23C 35.0161,23.6622 33.6828,24.4955 32.5,25.5C 31.8334,34.6753 31.1667,44.0086 30.5,53.5C 28.5224,51.4694 28.5224,49.8028 30.5,48.5C 30.0431,47.7025 29.3764,47.3691 28.5,47.5C 28.5,46.1667 28.5,44.8333 28.5,43.5C 24.8183,43.6653 21.1516,43.4986 17.5,43C 16.1587,41.1735 16.6587,40.0069 19,39.5C 22.1052,40.3672 25.2719,40.7006 28.5,40.5C 28.5,38.5 28.5,36.5 28.5,34.5C 24.5,34.5 20.5,34.5 16.5,34.5C 16.5,33.5 16.5,32.5 16.5,31.5C 20.5,31.5 24.5,31.5 28.5,31.5C 28.3296,26.4967 30.3296,22.6633 34.5,20C 53.5,19.3333 72.5,19.3333 91.5,20C 93.3237,20.66 94.657,21.8267 95.5,23.5 Z"/></g>
<g><path style="opacity:1" fill="#383c47" d="M 233.5,38.5 C 232.185,39.4756 230.852,40.4756 229.5,41.5C 227.833,40.3333 226.167,39.1667 224.5,38C 224.833,37.6667 225.167,37.3333 225.5,37C 224.667,36.8333 223.833,36.6667 223,36.5C 219.721,37.6913 216.721,38.6913 214,39.5C 212.842,39.0019 212.009,38.1685 211.5,37C 212.429,35.9231 213.096,34.7564 213.5,33.5C 220.236,30.7053 226.903,31.2053 233.5,35C 234.791,36.2917 234.791,37.4583 233.5,38.5 Z"/></g>
<g><path style="opacity:0.998" fill="#393c46" d="M 249.5,32.5 C 255.5,32.5 261.5,32.5 267.5,32.5C 267.5,35.1667 267.5,37.8333 267.5,40.5C 264.5,40.5 261.5,40.5 258.5,40.5C 256.24,39.637 254.74,37.9703 254,35.5C 253.692,36.3081 253.192,36.9747 252.5,37.5C 251.583,36.8728 250.583,36.5394 249.5,36.5C 250.833,35.1667 250.833,33.8333 249.5,32.5 Z"/></g>
<g><path style="opacity:1" fill="#393b45" d="M 285.5,42.5 C 282.745,44.125 280.245,43.7916 278,41.5C 278.483,39.4634 279.316,37.4634 280.5,35.5C 283.483,32.6137 287.149,31.2803 291.5,31.5C 296.642,31.491 301.142,33.1576 305,36.5C 305.667,37.5 305.667,38.5 305,39.5C 303.255,40.9557 301.422,42.289 299.5,43.5C 295.051,39.9589 290.384,39.6256 285.5,42.5 Z"/></g>
<g><path style="opacity:0.999" fill="#33373f" d="M 393.5,31.5 C 405.167,31.5 416.833,31.5 428.5,31.5C 428.5,32.5 428.5,33.5 428.5,34.5C 416.833,34.5 405.167,34.5 393.5,34.5C 393.5,33.5 393.5,32.5 393.5,31.5 Z"/></g>
<g><path style="opacity:1" fill="#ee7b39" d="M 49.5,42.5 C 51.0311,41.0755 50.6977,40.4088 48.5,40.5C 50.2605,36.43 49.0938,35.0967 45,36.5C 44.5172,37.448 44.3505,38.448 44.5,39.5C 44.0618,39.4346 43.7284,39.6012 43.5,40C 44.8228,40.8159 45.4894,41.9826 45.5,43.5C 40.6445,40.3983 40.3111,36.8983 44.5,33C 50.9806,31.6429 53.4806,34.1429 52,40.5C 51.5831,41.756 50.7498,42.4226 49.5,42.5 Z M 48.5,40.5 C 47.0413,40.5674 45.7079,40.2341 44.5,39.5C 44.3505,38.448 44.5172,37.448 45,36.5C 49.0938,35.0967 50.2605,36.43 48.5,40.5 Z"/></g>
<g><path style="opacity:1" fill="#393c46" d="M 162.5,32.5 C 163.5,32.5 164.5,32.5 165.5,32.5C 166.413,37.4103 165.079,41.4103 161.5,44.5C 161.649,43.448 161.483,42.448 161,41.5C 159.388,44.237 157.222,45.0703 154.5,44C 155.634,45.016 155.301,45.6827 153.5,46C 154.5,46.3333 155.5,46.6667 156.5,47C 155.167,48 155.167,49 156.5,50C 154.64,51.8604 152.806,53.6937 151,55.5C 149.148,53.7703 149.314,52.6036 151.5,52C 150.167,51.6667 148.833,51.3333 147.5,51C 149.008,49.4933 150.341,47.8267 151.5,46C 151.272,45.6012 150.938,45.4346 150.5,45.5C 150.511,43.9826 151.177,42.8159 152.5,42C 152.272,41.6012 151.938,41.4346 151.5,41.5C 149.429,40.2134 149.096,38.5467 150.5,36.5C 153,35.5 155.5,34.5 158,33.5C 160.087,34.895 161.587,34.5617 162.5,32.5 Z"/></g>
<g><path style="opacity:1" fill="#ee7c3a" d="M 95.5,23.5 C 97.2227,25.78 97.8893,28.4467 97.5,31.5C 101.846,31.3343 106.179,31.501 110.5,32C 110.957,32.414 111.291,32.914 111.5,33.5C 106.88,34.4933 102.214,34.8266 97.5,34.5C 97.5,36.5 97.5,38.5 97.5,40.5C 102.214,40.1734 106.88,40.5067 111.5,41.5C 111.291,42.086 110.957,42.586 110.5,43C 106.179,43.499 101.846,43.6657 97.5,43.5C 97.5,45.1667 97.5,46.8333 97.5,48.5C 102.167,48.5 106.833,48.5 111.5,48.5C 111.5,49.5 111.5,50.5 111.5,51.5C 106.833,51.5 102.167,51.5 97.5,51.5C 95.8467,44.0542 94.8467,36.3875 94.5,28.5C 93.8902,27.609 93.5569,26.609 93.5,25.5C 94.8333,25.5 95.5,24.8333 95.5,23.5 Z"/></g>
<g><path style="opacity:1" fill="#373b44" d="M 162.5,32.5 C 161.587,34.5617 160.087,34.895 158,33.5C 155.5,34.5 153,35.5 150.5,36.5C 149.096,38.5467 149.429,40.2134 151.5,41.5C 147.486,41.6655 143.486,41.4988 139.5,41C 138.556,38.2809 138.223,35.4475 138.5,32.5C 146.5,32.5 154.5,32.5 162.5,32.5 Z"/></g>
<g><path style="opacity:0.92" fill="#383c44" d="M 344.5,42.5 C 343.832,45.2448 342.499,47.7448 340.5,50C 342.187,51.913 342.687,54.0797 342,56.5C 341.722,55.5842 341.222,54.9175 340.5,54.5C 339.493,54.4524 339.16,55.4524 339.5,57.5C 338.662,57.8417 338.328,58.5084 338.5,59.5C 337.833,59.5 337.5,59.8333 337.5,60.5C 337.5,60.8333 337.5,61.1667 337.5,61.5C 336.833,61.5 336.5,61.8333 336.5,62.5C 335.508,62.3284 334.842,62.6618 334.5,63.5C 333.833,63.5 333.5,63.8333 333.5,64.5C 333.167,64.5 332.833,64.5 332.5,64.5C 331.833,64.5 331.167,64.5 330.5,64.5C 331.11,63.609 331.443,62.609 331.5,61.5C 333.521,59.9676 335.021,57.9676 336,55.5C 336.333,48.1667 336.667,40.8333 337,33.5C 339.333,30.8333 341.667,30.8333 344,33.5C 344.498,36.4816 344.665,39.4816 344.5,42.5 Z"/></g>
<g><path style="opacity:0.996" fill="#363940" d="M 449.5,50.5 C 446.903,50.2792 446.903,49.7792 449.5,49C 448.584,48.7216 447.918,48.2216 447.5,47.5C 448.5,47.1667 449.167,46.5 449.5,45.5C 454.298,41.2033 458.965,36.7033 463.5,32C 468.667,30.5 470.5,32.3333 469,37.5C 464,42.5 459,47.5 454,52.5C 453.953,58.3413 453.286,64.0079 452,69.5C 450.873,63.1565 450.04,56.8231 449.5,50.5 Z"/></g>
<g><path style="opacity:1" fill="#373b43" d="M 213.5,33.5 C 213.096,34.7564 212.429,35.9231 211.5,37C 212.009,38.1685 212.842,39.0019 214,39.5C 216.721,38.6913 219.721,37.6913 223,36.5C 223.833,36.6667 224.667,36.8333 225.5,37C 225.167,37.3333 224.833,37.6667 224.5,38C 226.167,39.1667 227.833,40.3333 229.5,41.5C 230.852,40.4756 232.185,39.4756 233.5,38.5C 233.709,40.7144 232.876,42.381 231,43.5C 228.215,41.7234 225.215,40.3901 222,39.5C 220.56,40.1476 219.06,40.4809 217.5,40.5C 217.365,42.5542 218.032,44.2209 219.5,45.5C 217.371,45.4841 215.538,46.1508 214,47.5C 213.034,50.3397 213.867,52.3397 216.5,53.5C 207.135,50.9146 204.635,45.248 209,36.5C 210.129,34.8588 211.629,33.8588 213.5,33.5 Z"/></g>
<g><path style="opacity:1" fill="#383c44" d="M 258.5,40.5 C 255.5,40.5 252.5,40.5 249.5,40.5C 249.5,42.5 249.5,44.5 249.5,46.5C 253.5,46.5 257.5,46.5 261.5,46.5C 261.5,49.1667 261.5,51.8333 261.5,54.5C 257.5,54.5 253.5,54.5 249.5,54.5C 249.5,56.5 249.5,58.5 249.5,60.5C 248.761,60.369 248.094,60.5357 247.5,61C 247.892,63.3543 247.892,65.8543 247.5,68.5C 254.044,68.3968 260.377,68.3968 266.5,68.5C 258.01,69.6569 249.343,69.8236 240.5,69C 239.748,68.3292 239.414,67.4959 239.5,66.5C 241.103,66.6882 242.437,66.1882 243.5,65C 242.833,64.6667 242.167,64.3333 241.5,64C 242.362,55.8936 242.528,47.7269 242,39.5C 242.333,39.1667 242.667,38.8333 243,38.5C 243.333,41.5 243.667,44.5 244,47.5C 244.333,44.1667 244.667,40.8333 245,37.5C 245.308,38.3081 245.808,38.9747 246.5,39.5C 247.696,39.1543 247.696,38.6543 246.5,38C 247.737,37.7679 248.737,37.2679 249.5,36.5C 250.583,36.5394 251.583,36.8728 252.5,37.5C 253.192,36.9747 253.692,36.3081 254,35.5C 254.74,37.9703 256.24,39.637 258.5,40.5 Z"/></g>
<g><path style="opacity:1" fill="#383b44" d="M 280.5,35.5 C 279.316,37.4634 278.483,39.4634 278,41.5C 280.245,43.7916 282.745,44.125 285.5,42.5C 280.541,50.2812 282.208,55.9478 290.5,59.5C 288.228,61.2395 285.895,63.0729 283.5,65C 284.678,65.9669 286.011,66.4669 287.5,66.5C 288.298,66.9569 288.631,67.6236 288.5,68.5C 278.422,66.58 273.088,60.4133 272.5,50C 273.024,43.7676 275.691,38.9343 280.5,35.5 Z"/></g>
<g><path style="opacity:0.992" fill="#383a43" d="M 377.5,47.5 C 375.61,47.2965 374.11,47.9632 373,49.5C 372.617,48.944 372.117,48.6107 371.5,48.5C 370.833,48.5 370.5,48.8333 370.5,49.5C 370.167,49.5 369.833,49.5 369.5,49.5C 354.249,47.0841 348.249,53.4174 351.5,68.5C 350.167,68.5 348.833,68.5 347.5,68.5C 344.68,52.2237 351.347,44.7237 367.5,46C 370.2,45.0508 371.033,43.2175 370,40.5C 368.414,39.624 366.914,38.624 365.5,37.5C 365.977,36.5224 366.643,35.6891 367.5,35C 362.177,34.5006 356.844,34.334 351.5,34.5C 351.665,37.5184 351.498,40.5184 351,43.5C 350,44.8333 349,44.8333 348,43.5C 347.207,39.577 347.374,35.7436 348.5,32C 356.549,31.1984 364.549,31.3651 372.5,32.5C 378.247,36.1392 379.913,41.1392 377.5,47.5 Z"/></g>
<g><path style="opacity:1" fill="#383c44" d="M 449.5,45.5 C 447.007,45.1307 446.34,45.7973 447.5,47.5C 447.918,48.2216 448.584,48.7216 449.5,49C 446.903,49.7792 446.903,50.2792 449.5,50.5C 449.955,57.0139 449.455,63.3473 448,69.5C 447.333,68.8333 446.667,68.1667 446,67.5C 445.667,61.5 445.333,55.5 445,49.5C 440.318,44.9852 435.818,40.3185 431.5,35.5C 432.539,31.8507 434.872,30.684 438.5,32C 442,35.5 445.5,39 449,42.5C 449.483,43.448 449.649,44.448 449.5,45.5 Z"/></g>
<g><path style="opacity:1" fill="#383b44" d="M 179.5,32.5 C 180.117,32.6107 180.617,32.944 181,33.5C 181.333,36.1667 181.667,38.8333 182,41.5C 184.833,38.6667 187.667,35.8333 190.5,33C 194.211,32.1747 197.878,32.3414 201.5,33.5C 197.252,37.576 193.585,42.076 190.5,47C 193.868,52.9 197.368,58.7333 201,64.5C 202.009,66.0249 202.509,67.6916 202.5,69.5C 199.15,69.665 195.817,69.4983 192.5,69C 189.042,63.9184 185.709,58.7517 182.5,53.5C 181.671,58.4671 181.171,63.4671 181,68.5C 177.943,69.4505 174.777,69.7839 171.5,69.5C 171.5,68.1667 171.5,66.8333 171.5,65.5C 173.836,67.3907 176.502,67.8907 179.5,67C 179.517,63.3666 179.35,59.5332 179,55.5C 177.299,53.976 177.799,52.976 180.5,52.5C 181.893,50.3259 181.56,48.4926 179.5,47C 179.665,45.8831 179.998,44.7164 180.5,43.5C 174.362,43.8474 173.862,41.8474 179,37.5C 179.494,35.8659 179.66,34.1992 179.5,32.5 Z"/></g>
<g><path style="opacity:1" fill="#393c46" d="M 179.5,32.5 C 179.66,34.1992 179.494,35.8659 179,37.5C 173.862,41.8474 174.362,43.8474 180.5,43.5C 179.998,44.7164 179.665,45.8831 179.5,47C 181.56,48.4926 181.893,50.3259 180.5,52.5C 177.799,52.976 177.299,53.976 179,55.5C 179.35,59.5332 179.517,63.3666 179.5,67C 176.502,67.8907 173.836,67.3907 171.5,65.5C 171.5,54.5 171.5,43.5 171.5,32.5C 174.167,32.5 176.833,32.5 179.5,32.5 Z"/></g>
<g><path style="opacity:1" fill="#ee7936" d="M 76.5,32.5 C 83.1633,31.3326 85.9966,33.9992 85,40.5C 82.736,43.5199 79.9027,44.1865 76.5,42.5C 74.8333,43.3333 73.1667,44.1667 71.5,45C 69.1912,47.43 67.5245,50.2633 66.5,53.5C 58.7861,54.9489 56.2861,51.9489 59,44.5C 61.6667,43.1667 64.3333,43.1667 67,44.5C 68.8333,43.3333 70.6667,42.1667 72.5,41C 73.4772,38.3514 74.8106,35.5181 76.5,32.5 Z M 78.5,35.5 C 82.1612,35.3501 83.1612,36.8501 81.5,40C 77.7071,40.4866 76.7071,38.9866 78.5,35.5 Z M 61.5,46.5 C 65.1612,46.3501 66.1612,47.8501 64.5,51C 60.7071,51.4866 59.7071,49.9866 61.5,46.5 Z"/></g>
<g><path style="opacity:1" fill="#383c46" d="M 219.5,45.5 C 223.297,45.8723 226.63,47.2057 229.5,49.5C 229.423,50.7498 228.756,51.5831 227.5,52C 229.301,52.3173 229.634,52.984 228.5,54C 231.695,56.1941 232.695,59.0274 231.5,62.5C 229.227,63.2791 227.394,64.6125 226,66.5C 224.27,65.3507 222.604,65.3507 221,66.5C 219.184,65.6705 217.351,64.8372 215.5,64C 216.833,63.6667 218.167,63.3333 219.5,63C 220.252,62.3292 220.586,61.4959 220.5,60.5C 223.166,60.9342 224.333,59.9342 224,57.5C 221.583,55.8724 219.083,54.539 216.5,53.5C 213.867,52.3397 213.034,50.3397 214,47.5C 215.538,46.1508 217.371,45.4841 219.5,45.5 Z"/></g>
<g><path style="opacity:0.911" fill="#3c3e46" d="M 322.5,60.5 C 321.791,61.404 320.791,61.7373 319.5,61.5C 319.167,61.5 318.833,61.5 318.5,61.5C 318.5,60.8333 318.167,60.5 317.5,60.5C 317.672,59.5084 317.338,58.8417 316.5,58.5C 316.672,57.5084 316.338,56.8417 315.5,56.5C 315.5,55.8333 315.5,55.1667 315.5,54.5C 315.5,46.8333 315.5,39.1667 315.5,31.5C 316.822,31.33 317.989,31.6634 319,32.5C 319.333,40.5 319.667,48.5 320,56.5C 320.662,57.9839 321.496,59.3172 322.5,60.5 Z"/></g>
<g><path style="opacity:0.976" fill="#373b42" d="M 377.5,47.5 C 375.866,50.8319 373.199,52.9985 369.5,54C 372.333,56.8333 375.167,59.6667 378,62.5C 379.206,65.8469 378.206,68.1803 375,69.5C 371.703,67.2046 368.703,64.538 366,61.5C 365.437,60.2752 365.77,59.2752 367,58.5C 367.718,59.4506 368.551,59.6172 369.5,59C 366.436,56.7928 364.436,53.9594 363.5,50.5C 365.735,50.7947 367.735,50.4614 369.5,49.5C 369.833,49.5 370.167,49.5 370.5,49.5C 371.167,49.5 371.5,49.1667 371.5,48.5C 372.117,48.6107 372.617,48.944 373,49.5C 374.11,47.9632 375.61,47.2965 377.5,47.5 Z"/></g>
<g><path style="opacity:0.752" fill="#3b3c43" d="M 383.5,31.5 C 386.547,30.8554 388.713,31.8554 390,34.5C 390.667,45.5 390.667,56.5 390,67.5C 389.333,68.1667 388.667,68.8333 388,69.5C 386.688,58.3238 386.022,46.9905 386,35.5C 385.667,40.8333 385.333,46.1667 385,51.5C 384.333,52.8333 383.667,52.8333 383,51.5C 382.208,44.7526 382.374,38.0859 383.5,31.5 Z"/></g>
<g><path style="opacity:0.954" fill="#353941" d="M 413.5,35.5 C 418.5,35.5 423.5,35.5 428.5,35.5C 428.67,36.8221 428.337,37.9887 427.5,39C 423.179,39.499 418.846,39.6657 414.5,39.5C 414.666,49.1724 414.5,58.8391 414,68.5C 413.333,69.8333 412.667,69.8333 412,68.5C 411.333,58.1667 411.333,47.8333 412,37.5C 412.717,36.9558 413.217,36.2891 413.5,35.5 Z"/></g>
<g><path style="opacity:0.997" fill="#383b45" d="M 249.5,32.5 C 250.833,33.8333 250.833,35.1667 249.5,36.5C 248.737,37.2679 247.737,37.7679 246.5,38C 247.696,38.6543 247.696,39.1543 246.5,39.5C 245.808,38.9747 245.308,38.3081 245,37.5C 244.667,40.8333 244.333,44.1667 244,47.5C 243.667,44.5 243.333,41.5 243,38.5C 242.667,38.8333 242.333,39.1667 242,39.5C 242.528,47.7269 242.362,55.8936 241.5,64C 242.167,64.3333 242.833,64.6667 243.5,65C 242.437,66.1882 241.103,66.6882 239.5,66.5C 239.333,55.495 239.5,44.495 240,33.5C 243.057,32.5495 246.223,32.2161 249.5,32.5 Z"/></g>
<g><path style="opacity:1" fill="#f17630" d="M 110.5,57.5 C 111.833,58.1667 111.833,58.8333 110.5,59.5C 91.8333,58.8333 91.8333,58.1667 110.5,57.5 Z"/></g>
<g><path style="opacity:1" fill="#373b43" d="M 161.5,44.5 C 158.555,49.2856 155.388,53.9523 152,58.5C 151.308,59.4368 151.475,60.1034 152.5,60.5C 155.204,61.6802 155.037,62.6802 152,63.5C 150.989,63.1081 150.489,62.4415 150.5,61.5C 147,64.0834 143.5,64.0834 140,61.5C 138,63.5 138,65.5 140,67.5C 143.712,67.9944 147.546,67.9944 151.5,67.5C 154.59,67.5217 157.257,68.1883 159.5,69.5C 152.245,69.8132 145.079,69.4799 138,68.5C 137.245,65.6967 137.578,63.0301 139,60.5C 142.697,55.3149 146.53,50.3149 150.5,45.5C 150.938,45.4346 151.272,45.6012 151.5,46C 150.341,47.8267 149.008,49.4933 147.5,51C 148.833,51.3333 150.167,51.6667 151.5,52C 149.314,52.6036 149.148,53.7703 151,55.5C 152.806,53.6937 154.64,51.8604 156.5,50C 155.167,49 155.167,48 156.5,47C 155.5,46.6667 154.5,46.3333 153.5,46C 155.301,45.6827 155.634,45.016 154.5,44C 157.222,45.0703 159.388,44.237 161,41.5C 161.483,42.448 161.649,43.448 161.5,44.5 Z"/></g>
<g><path style="opacity:1" fill="#e87d40" d="M 77.5,58.5 C 83.194,57.0185 85.694,59.3518 85,65.5C 82.3214,68.8346 79.1547,69.3346 75.5,67C 74.7476,66.3292 74.4142,65.4959 74.5,64.5C 75.8999,63.9002 76.8999,62.9002 77.5,61.5C 77.1762,64.6802 78.5096,65.8469 81.5,65C 83.0558,62.499 82.3892,60.999 79.5,60.5C 80.6602,58.7973 79.9935,58.1307 77.5,58.5 Z"/></g>
<g><path style="opacity:1" fill="#ea7c3e" d="M 32.5,25.5 C 32.3334,41.8367 32.5001,58.1701 33,74.5C 33.8333,75.3333 34.6667,76.1667 35.5,77C 53.8333,77.6667 72.1667,77.6667 90.5,77C 92.9282,75.9817 94.2615,74.1483 94.5,71.5C 95.3195,68.6946 95.8195,65.6946 96,62.5C 96.3826,63.056 96.8826,63.3893 97.5,63.5C 101.762,65.1276 106.429,66.1276 111.5,66.5C 111.291,67.086 110.957,67.586 110.5,68C 106.179,68.499 101.846,68.6657 97.5,68.5C 98.2603,73.814 96.2603,77.6473 91.5,80C 82.0569,81.1119 72.5569,81.6119 63,81.5C 53.4431,81.6119 43.9431,81.1119 34.5,80C 30.3376,77.3784 28.3376,73.545 28.5,68.5C 24.5,68.5 20.5,68.5 16.5,68.5C 16.5,67.5 16.5,66.5 16.5,65.5C 20.5,65.5 24.5,65.5 28.5,65.5C 28.5,63.8333 28.5,62.1667 28.5,60.5C 24.8183,60.6653 21.1516,60.4986 17.5,60C 16.1667,59 16.1667,58 17.5,57C 21.1516,56.5014 24.8183,56.3347 28.5,56.5C 28.5,54.8333 28.5,53.1667 28.5,51.5C 24.5,51.5 20.5,51.5 16.5,51.5C 16.4501,49.4099 17.4501,48.0766 19.5,47.5C 22.6346,48.7828 25.6346,48.7828 28.5,47.5C 29.3764,47.3691 30.0431,47.7025 30.5,48.5C 28.5224,49.8028 28.5224,51.4694 30.5,53.5C 31.1667,44.0086 31.8334,34.6753 32.5,25.5 Z"/></g>
<g><path style="opacity:1" fill="#df8453" d="M 94.5,28.5 C 94.8467,36.3875 95.8467,44.0542 97.5,51.5C 97.5,53.1667 97.5,54.8333 97.5,56.5C 102.032,56.1818 106.366,56.5151 110.5,57.5C 91.8333,58.1667 91.8333,58.8333 110.5,59.5C 106.366,60.4849 102.032,60.8182 97.5,60.5C 97.5,61.5 97.5,62.5 97.5,63.5C 96.8826,63.3893 96.3826,63.056 96,62.5C 95.8195,65.6946 95.3195,68.6946 94.5,71.5C 94.5,57.1667 94.5,42.8333 94.5,28.5 Z"/></g>
<g><path style="opacity:0.999" fill="#383b45" d="M 288.5,68.5 C 288.631,67.6236 288.298,66.9569 287.5,66.5C 286.011,66.4669 284.678,65.9669 283.5,65C 285.895,63.0729 288.228,61.2395 290.5,59.5C 293.765,59.7918 296.765,59.1251 299.5,57.5C 307.449,61.2627 307.115,64.7627 298.5,68C 295.074,69.5755 291.74,69.7422 288.5,68.5 Z"/></g>
<g><path style="opacity:0.99" fill="#3a3d46" d="M 152.5,60.5 C 157.099,60.2 161.599,60.5333 166,61.5C 168.232,67.9114 166.065,70.578 159.5,69.5C 157.257,68.1883 154.59,67.5217 151.5,67.5C 147.546,67.9944 143.712,67.9944 140,67.5C 138,65.5 138,63.5 140,61.5C 143.5,64.0834 147,64.0834 150.5,61.5C 150.489,62.4415 150.989,63.1081 152,63.5C 155.037,62.6802 155.204,61.6802 152.5,60.5 Z"/></g>
<g><path style="opacity:0.906" fill="#383b42" d="M 344.5,42.5 C 344.851,48.2617 344.351,53.9284 343,59.5C 337.308,69.6174 329.141,72.1174 318.5,67C 313.305,63.1106 310.971,57.9439 311.5,51.5C 312.5,51.5 313.5,51.5 314.5,51.5C 314.263,52.791 314.596,53.791 315.5,54.5C 315.5,55.1667 315.5,55.8333 315.5,56.5C 315.328,57.4916 315.662,58.1583 316.5,58.5C 316.328,59.4916 316.662,60.1583 317.5,60.5C 318.167,60.5 318.5,60.8333 318.5,61.5C 318.833,62.8333 319.167,62.8333 319.5,61.5C 320.791,61.7373 321.791,61.404 322.5,60.5C 325.43,61.299 328.43,61.6323 331.5,61.5C 331.443,62.609 331.11,63.609 330.5,64.5C 331.167,65.8333 331.833,65.8333 332.5,64.5C 332.833,64.5 333.167,64.5 333.5,64.5C 334.167,64.5 334.5,64.1667 334.5,63.5C 335.492,63.6716 336.158,63.3382 336.5,62.5C 337.167,62.5 337.5,62.1667 337.5,61.5C 337.5,61.1667 337.5,60.8333 337.5,60.5C 338.167,60.5 338.5,60.1667 338.5,59.5C 339.338,59.1583 339.672,58.4916 339.5,57.5C 340.404,56.791 340.737,55.791 340.5,54.5C 341.222,54.9175 341.722,55.5842 342,56.5C 342.687,54.0797 342.187,51.913 340.5,50C 342.499,47.7448 343.832,45.2448 344.5,42.5 Z"/></g>
<g><path style="opacity:1" fill="#ef7933" d="M 44.5,39.5 C 45.7079,40.2341 47.0413,40.5674 48.5,40.5C 50.6977,40.4088 51.0311,41.0755 49.5,42.5C 48.1862,48.667 48.1862,54.8336 49.5,61C 57.8333,61.6667 66.1667,61.6667 74.5,61C 75.0779,59.583 76.0779,58.7496 77.5,58.5C 79.9935,58.1307 80.6602,58.7973 79.5,60.5C 78.8333,60.8333 78.1667,61.1667 77.5,61.5C 76.8999,62.9002 75.8999,63.9002 74.5,64.5C 65.1607,64.6665 55.8274,64.4998 46.5,64C 45.5212,57.2555 45.1878,50.4222 45.5,43.5C 45.4894,41.9826 44.8228,40.8159 43.5,40C 43.7284,39.6012 44.0618,39.4346 44.5,39.5 Z"/></g>
<g><path style="opacity:1" fill="#383b43" d="M 229.5,49.5 C 231.752,49.9156 233.252,51.249 234,53.5C 234.911,66.6682 228.745,71.8349 215.5,69C 210.872,68.3564 207.205,66.1897 204.5,62.5C 205.577,60.2706 206.244,57.9372 206.5,55.5C 209.562,56.6922 212.562,58.1922 215.5,60C 217.134,60.4935 218.801,60.6602 220.5,60.5C 220.586,61.4959 220.252,62.3292 219.5,63C 218.167,63.3333 216.833,63.6667 215.5,64C 217.351,64.8372 219.184,65.6705 221,66.5C 222.604,65.3507 224.27,65.3507 226,66.5C 227.394,64.6125 229.227,63.2791 231.5,62.5C 232.695,59.0274 231.695,56.1941 228.5,54C 229.634,52.984 229.301,52.3173 227.5,52C 228.756,51.5831 229.423,50.7498 229.5,49.5 Z"/></g>
<g><path style="opacity:1" fill="#3a3d46" d="M 249.5,60.5 C 255.5,60.5 261.5,60.5 267.5,60.5C 267.806,63.3854 267.473,66.0521 266.5,68.5C 260.377,68.3968 254.044,68.3968 247.5,68.5C 247.892,65.8543 247.892,63.3543 247.5,61C 248.094,60.5357 248.761,60.369 249.5,60.5 Z"/></g>
<g><path style="opacity:1" fill="#3b3d44" d="M 393.5,35.5 C 398.511,35.3341 403.511,35.5007 408.5,36C 409,36.5 409.5,37 410,37.5C 410.973,48.3254 410.64,58.9921 409,69.5C 408.333,68.8333 407.667,68.1667 407,67.5C 406.5,58.1726 406.334,48.8393 406.5,39.5C 402.486,39.6655 398.486,39.4988 394.5,39C 393.663,37.9887 393.33,36.8221 393.5,35.5 Z"/></g>
<g><path style="opacity:1" fill="#fc711b" d="M 40.5,78.5 C 56.1702,78.3334 71.8369,78.5001 87.5,79C 79.4917,80.1538 71.3251,80.6538 63,80.5C 55.1667,80.3333 47.3333,80.1667 39.5,80C 40.056,79.6174 40.3893,79.1174 40.5,78.5 Z"/></g>
</svg>
